# xmcd
#
# Track frame offsets: 
#        150
#        14387
#        30116
#        45068
#        59953
#        74287
#        92404
#        102839
#        120176
#        137868
#        156257
#        173829
#        191081
#        211353
#        227055
#
# Disc length: 3268 seconds
#
# Revision: 0
# Processed by: cddbd v1.5.2PL0 Copyright (c) Steve Scherf et al.
# Submitted via: ExactAudioCopy v0.99pb4
#
DISCID=bf0cc20f
DTITLE=Backseat - Songs
DYEAR=1900
DGENRE=Blues
TTITLE0=Rainy Days
TTITLE1=Wheel of Time
TTITLE2=You to myself
TTITLE3=Walk on
TTITLE4=Talk about love
TTITLE5=Coast to coast
TTITLE6=Anywhere
TTITLE7=Dirty laundry
TTITLE8=Won't you come over
TTITLE9=The river knows
TTITLE10=You - You - You
TTITLE11=The Poet
TTITLE12=Once bitten twice shy
TTITLE13=The needle and the damage done
TTITLE14=Extra
EXTD=
EXTT0=
EXTT1=
EXTT2=
EXTT3=
EXTT4=
EXTT5=
EXTT6=
EXTT7=
EXTT8=
EXTT9=
EXTT10=
EXTT11=
EXTT12=
EXTT13=
EXTT14=
PLAYORDER=
